# xmcd
#
# Track frame offsets:
#	150
#	18571
#	31744
#	49224
#	62159
#	74674
#	86925
#	98745
#	111875
#	125999
#	139006
#
# Disc length: 2062 seconds
#
# Revision: 1
# Processed by: cddbd v1.5.2PL0 Copyright (c) Steve Scherf et al.
# Submitted via: audiograbber 1.83.01
#
DISCID=a4080c0b
DTITLE=Radio 21 - Hituri demente
DYEAR=2007
DGENRE=
TTITLE0=Jaga - Jaga, Jaga
TTITLE1=Diana Onofrei - Rita, Rita
TTITLE2=Florin Turcu - Baga Base, Baga
TTITLE3=Trasnet - Studentul
TTITLE4=Trasnet - Soferul
TTITLE5=Trasnet - Loboda
TTITLE6=Trasnet - Hai cu mine
TTITLE7=Alexandru Leahu - Ia-o de subtioara
TTITLE8=Alexandru Lozanciuc - Nunta
TTITLE9=Trasnet - Hai nu nanu
TTITLE10=Andrei Stefanet - O Puisor
EXTD=Radio21
EXTT0=
EXTT1=
EXTT2=
EXTT3=
EXTT4=
EXTT5=
EXTT6=
EXTT7=
EXTT8=
EXTT9=
EXTT10=
PLAYORDER=
